<?xml version="1.0" standalone="no"?>
<!DOCTYPE svg PUBLIC "-//W3C//DTD SVG 20010904//EN"
 "http://www.w3.org/TR/2001/REC-SVG-20010904/DTD/svg10.dtd">
<svg version="1.0" xmlns="http://www.w3.org/2000/svg"
 width="1165.000000pt" height="1280.000000pt" viewBox="0 0 1165.000000 1280.000000"
 preserveAspectRatio="xMidYMid meet">
<metadata>
Created by potrace 1.15, written by Peter Selinger 2001-2017
</metadata>
<g transform="translate(0.000000,1280.000000) scale(0.100000,-0.100000)"
fill="#000000" stroke="none">
<path d="M4625 12775 c-32 -19 -55 -23 -120 -24 -54 0 -86 4 -98 14 -15 10
-25 11 -43 3 -18 -8 -33 -7 -67 6 -48 18 -67 14 -122 -23 -40 -27 -106 -27
-163 0 -38 19 -53 21 -115 14 -40 -3 -135 -8 -212 -11 -199 -6 -214 -9 -281
-56 -57 -41 -115 -60 -180 -59 -18 1 -37 -6 -44 -14 -7 -8 -23 -15 -36 -15
-16 0 -31 -13 -51 -42 -16 -24 -35 -44 -43 -45 -8 0 -55 -7 -104 -14 l-89 -13
-23 29 c-22 27 -25 28 -103 26 -53 -1 -93 4 -117 14 -27 11 -41 12 -56 4 -16
-9 -25 -6 -44 12 -14 13 -28 36 -32 53 -10 37 -31 51 -65 42 -29 -7 -77 -53
-77 -74 0 -23 -62 -145 -101 -198 -36 -49 -41 -52 -131 -78 -51 -15 -108 -31
-126 -36 -19 -4 -61 -34 -96 -67 -35 -32 -75 -66 -89 -76 -15 -10 -30 -30 -33
-45 -7 -29 -41 -80 -86 -128 -28 -30 -30 -37 -37 -151 -5 -89 -12 -128 -25
-148 -59 -90 -188 -195 -240 -195 -22 0 -51 -13 -90 -41 -32 -23 -79 -47 -104
-54 -123 -35 -171 -74 -226 -182 -17 -34 -40 -62 -64 -77 -71 -44 -138 -135
-156 -211 -15 -59 -110 -188 -175 -235 -63 -45 -73 -59 -165 -232 -31 -59 -40
-68 -64 -68 -32 0 -72 -51 -72 -93 0 -14 -7 -47 -15 -71 -9 -25 -13 -57 -9
-70 l6 -26 17 22 c26 31 45 18 60 -41 14 -57 5 -120 -30 -199 -24 -54 -24 -83
1 -115 22 -28 25 -58 9 -89 -6 -11 -15 -68 -20 -127 -9 -103 -38 -209 -65
-242 -8 -8 -13 -28 -13 -45 1 -39 -19 -142 -32 -166 -20 -38 -81 -98 -100 -98
-21 0 -69 -20 -69 -29 1 -14 37 -50 54 -53 15 -2 23 -20 37 -78 24 -99 24
-137 1 -144 -15 -5 -17 -16 -14 -78 3 -48 10 -79 20 -91 14 -16 14 -19 2 -27
-8 -6 -18 -10 -22 -10 -4 0 -2 -11 4 -25 15 -32 68 -36 68 -5 0 26 34 44 59
30 29 -15 37 -13 76 21 34 30 38 31 98 25 183 -19 179 -18 171 -35 -4 -9 -10
-39 -12 -68 -4 -59 -19 -73 -92 -93 -24 -6 -56 -25 -73 -41 -26 -26 -28 -34
-23 -72 4 -23 8 -58 10 -77 2 -19 4 -41 5 -47 0 -7 39 -43 86 -79 85 -67 94
-81 110 -164 4 -19 18 -54 32 -78 15 -26 22 -50 18 -63 -11 -35 5 -77 46 -116
21 -21 39 -45 39 -55 0 -20 79 -68 113 -68 18 0 28 -8 37 -30 21 -51 48 -78
111 -111 33 -18 65 -42 71 -53 10 -20 65 -81 170 -187 50 -51 113 -89 149 -89
12 0 37 -16 55 -35 l33 -35 98 51 c54 28 110 57 124 65 15 8 62 19 105 25 44
6 108 14 144 19 129 18 254 12 332 -15 39 -14 82 -32 94 -40 33 -21 90 -19
106 4 19 27 92 61 132 61 50 0 109 26 141 62 22 25 32 29 57 24 18 -3 41 0 60
10 17 9 41 13 53 10 17 -4 29 0 42 18 14 17 40 29 89 41 38 9 87 20 109 26
130 31 319 27 389 -8 43 -22 126 -103 126 -123 0 -10 7 -23 15 -30 8 -7 15
-20 15 -30 0 -35 41 -108 80 -144 47 -42 88 -47 185 -20 64 18 158 25 177 13
22 -14 58 13 58 43 0 34 4 34 59 7 41 -19 43 -22 37 -54 -6 -31 -4 -36 23 -50
17 -8 37 -15 46 -15 19 0 89 -72 112 -115 14 -27 14 -35 -2 -97 -14 -55 -15
-71 -5 -83 10 -13 10 -19 -3 -33 -23 -25 -89 -181 -82 -192 3 -6 13 -10 21
-10 22 0 17 -58 -10 -104 -24 -43 -46 -100 -67 -178 -8 -27 -17 -48 -22 -48
-5 0 -20 9 -34 20 -14 11 -29 20 -34 20 -18 0 7 -38 68 -103 56 -60 82 -100
53 -82 -18 11 -11 -6 15 -37 17 -21 23 -37 19 -53 -5 -20 4 -31 59 -74 37 -29
78 -72 93 -98 30 -53 153 -177 195 -199 28 -14 99 -110 99 -133 0 -6 11 -28
25 -49 14 -22 24 -50 23 -70 -1 -17 6 -40 15 -50 14 -15 15 -23 5 -49 -11 -29
-9 -34 28 -78 61 -73 63 -78 75 -141 6 -32 26 -87 45 -121 23 -41 34 -74 34
-101 0 -37 -3 -41 -35 -52 -42 -14 -45 -36 -14 -95 11 -22 31 -66 44 -97 13
-31 36 -74 52 -94 27 -37 28 -40 27 -161 -2 -120 -3 -125 -33 -172 -17 -26
-47 -56 -66 -67 -21 -11 -49 -41 -69 -74 -34 -56 -42 -98 -49 -255 -3 -58 -40
-159 -72 -195 -31 -34 -37 -60 -40 -159 -2 -61 2 -95 12 -115 12 -22 12 -34 4
-53 -29 -64 -10 -120 70 -208 20 -22 54 -69 76 -105 46 -77 123 -234 123 -251
0 -6 16 -26 35 -44 25 -23 40 -49 52 -91 10 -34 40 -92 72 -139 43 -64 54 -87
52 -115 -10 -162 2 -257 43 -340 17 -35 24 -70 29 -152 5 -86 11 -116 31 -157
14 -28 26 -65 26 -83 0 -20 20 -69 49 -122 37 -70 54 -92 78 -100 31 -12 103
-85 103 -106 0 -6 9 -23 19 -37 11 -13 32 -61 46 -106 30 -92 47 -128 81 -174
13 -17 24 -39 24 -47 0 -9 9 -21 20 -28 11 -7 20 -20 20 -29 0 -9 7 -22 16
-30 29 -24 41 -64 47 -151 4 -70 2 -85 -9 -81 -16 6 -29 -37 -20 -70 3 -13 17
-39 30 -58 14 -19 30 -43 35 -54 5 -11 18 -29 30 -39 11 -11 21 -24 21 -30 1
-17 36 -56 52 -56 7 -1 29 -14 48 -30 47 -41 106 -42 152 -1 34 29 106 45 193
42 33 -1 46 4 70 29 16 17 36 28 44 25 9 -2 52 -1 96 4 53 5 111 4 170 -4 77
-11 94 -10 119 2 16 8 40 13 54 10 18 -3 36 3 57 19 23 17 45 24 76 24 49 0
101 16 141 42 14 9 39 20 54 24 16 3 49 26 74 50 25 23 70 60 102 81 48 33
120 95 153 133 6 6 38 29 72 50 49 31 66 48 82 85 34 77 123 186 242 296 137
127 157 157 169 252 5 39 16 86 24 102 16 34 14 98 -5 163 -18 57 -1 88 67
122 27 14 73 40 100 57 30 20 64 33 82 33 36 0 167 54 195 80 19 17 57 143 57
189 1 14 7 37 15 51 22 38 17 188 -6 175 -4 -3 -7 32 -6 77 2 67 -3 94 -22
143 -13 33 -32 69 -43 81 -45 50 3 125 122 192 31 17 66 42 79 56 14 14 34 26
46 26 14 0 28 12 43 38 11 20 38 56 59 78 21 23 46 54 56 68 26 38 248 146
300 146 37 0 46 7 172 132 131 132 132 134 150 203 10 39 26 79 37 91 24 27
23 41 -9 86 -26 38 -26 40 -12 96 7 31 13 64 12 72 -4 28 -2 65 7 160 6 52 9
109 8 125 -1 37 0 76 8 180 l5 81 -39 22 c-22 12 -42 29 -46 37 -3 8 -11 15
-19 15 -9 0 -12 9 -9 30 3 20 -2 37 -12 49 -9 10 -14 25 -10 34 4 11 -4 25
-22 40 -22 19 -25 27 -16 43 8 14 6 25 -6 46 -14 24 -14 34 -3 78 7 28 10 66
7 84 -4 23 0 48 14 81 l21 48 -31 38 c-16 21 -30 42 -30 48 0 6 -11 18 -25 27
-37 24 -35 91 5 156 17 27 38 71 46 96 9 26 21 52 29 57 24 20 55 80 55 110 0
18 15 52 37 85 28 42 36 64 34 93 -2 47 9 62 57 78 43 14 58 32 67 78 6 32 8
33 44 28 51 -6 68 5 96 68 24 55 129 195 146 195 5 0 34 38 64 85 30 47 60 85
65 85 6 0 34 24 64 52 29 29 67 65 84 80 17 15 38 41 46 57 15 28 187 151 233
165 12 4 77 65 144 136 95 100 150 170 242 307 127 192 170 271 187 348 6 26
26 69 44 94 18 25 38 70 44 100 8 33 24 67 43 88 16 19 52 81 80 137 39 83 49
113 49 155 0 56 16 96 61 150 32 39 31 46 -11 54 -29 6 -30 8 -30 65 0 33 5
73 11 91 25 70 -54 109 -118 59 -47 -38 -90 -58 -123 -58 -18 0 -47 -9 -64
-19 -24 -15 -50 -19 -116 -19 -47 0 -98 -5 -113 -11 -16 -6 -43 -11 -62 -11
-25 0 -46 -10 -79 -40 -56 -48 -95 -59 -178 -53 -59 5 -70 2 -151 -36 -65 -31
-94 -40 -115 -35 -55 13 -113 55 -148 109 -39 59 -100 107 -130 103 -29 -4
-27 16 2 24 64 17 81 59 45 110 -14 21 -29 38 -34 38 -4 0 -25 11 -45 25 -39
25 -82 89 -82 119 0 9 -8 16 -20 16 -10 0 -24 9 -30 20 -6 11 -28 28 -50 36
-27 11 -49 31 -73 68 -28 42 -43 55 -70 60 -18 3 -43 17 -55 31 -12 13 -33 27
-47 31 -18 4 -31 18 -41 44 -13 32 -25 42 -69 60 -71 29 -83 44 -94 121 -9 68
-50 171 -80 204 -11 11 -31 44 -45 73 -20 39 -31 52 -44 48 -12 -3 -30 11 -57
45 -22 28 -52 57 -67 65 -54 28 -66 71 -118 399 -9 59 -28 114 -46 136 -8 8
-14 28 -14 42 0 20 -12 36 -50 64 -27 20 -50 41 -50 45 0 17 -41 48 -65 48
-14 0 -29 8 -35 20 -6 11 -17 20 -24 20 -22 0 -31 97 -11 126 18 28 19 44 2
44 -19 0 -117 117 -149 177 -15 30 -41 71 -57 91 -35 45 -111 186 -111 206 0
8 -11 32 -25 52 -14 20 -25 44 -25 53 0 10 -6 26 -14 37 -8 10 -12 29 -9 41 4
17 -2 26 -25 40 -75 46 -162 146 -162 186 0 13 -9 36 -20 50 -23 29 -26 60 -6
76 11 10 17 3 29 -34 9 -25 31 -64 50 -86 20 -22 37 -56 41 -77 5 -28 15 -44
46 -65 22 -16 40 -32 40 -37 0 -5 20 -21 45 -36 66 -38 79 -24 95 109 16 134
17 141 25 166 6 20 -71 273 -94 310 -8 13 -21 12 -89 -4 -98 -22 -176 -16
-247 18 -62 30 -136 42 -166 27 -17 -10 -25 -8 -43 9 -21 19 -22 20 -61 2 -22
-10 -46 -26 -54 -35 -25 -30 -131 -86 -163 -86 -17 0 -39 6 -47 14 -19 17
-142 36 -189 29 -21 -4 -39 0 -50 10 -17 15 -196 57 -243 57 -14 0 -30 -5 -36
-11 -8 -8 -24 1 -58 32 -44 41 -53 45 -119 51 -109 11 -195 23 -198 28 -2 3
-8 18 -14 35 -8 25 -18 32 -69 47 -33 10 -68 22 -78 28 -26 15 -162 1 -217
-22 -50 -21 -95 -60 -115 -98 -17 -32 -8 -119 16 -167 l18 -36 -29 -41 c-42
-62 -54 -69 -118 -69 -52 -1 -64 4 -139 52 -45 29 -99 57 -120 63 -27 7 -248
57 -259 58 -5 0 -64 95 -84 135 -24 46 -29 51 -95 73 -38 13 -104 37 -145 52
-65 24 -85 27 -146 23 -67 -5 -72 -4 -105 24 -19 17 -46 33 -60 36 -34 9 -79
45 -79 64 0 12 -8 15 -40 10 -30 -4 -40 -2 -40 9 0 8 -4 14 -9 14 -4 0 -20 9
-34 20 -33 26 -26 47 28 88 24 19 50 47 57 63 7 16 21 32 30 35 9 3 19 13 22
22 9 27 -22 114 -50 143 -15 15 -23 32 -20 38 4 6 4 45 0 88 -6 66 -11 82 -35
105 -24 25 -35 28 -86 27 -41 -1 -70 -8 -98 -24z m160 9 c29 -12 46 -63 49
-150 3 -74 6 -86 28 -109 14 -14 28 -38 30 -53 3 -15 8 -34 12 -43 8 -18 -9
-41 -107 -141 -34 -35 -57 -66 -55 -76 2 -9 18 -26 35 -37 18 -11 35 -28 38
-37 5 -14 10 -16 25 -8 26 14 50 12 50 -3 0 -7 11 -23 25 -35 21 -19 25 -30
25 -81 0 -65 -15 -91 -54 -91 -12 0 -32 -10 -44 -22 -12 -13 -35 -34 -52 -48
-75 -62 -73 -57 -66 -124 6 -67 4 -73 -36 -99 -36 -22 -68 -22 -68 1 0 9 -7
31 -16 47 -9 17 -19 63 -23 104 -7 72 -9 75 -53 115 -50 45 -73 82 -83 138 -4
23 -16 43 -31 53 -17 11 -24 25 -24 46 0 16 -11 51 -25 77 l-25 47 27 7 c16 4
51 32 80 61 65 68 78 110 68 229 -5 69 -3 92 10 117 8 17 20 31 25 31 5 0 22
14 37 30 14 17 32 30 38 30 7 0 18 7 25 15 13 15 102 21 135 9z m-490 -21 c28
-13 42 -15 64 -7 21 9 32 8 46 -2 12 -9 47 -14 97 -14 l79 0 -42 -40 -42 -40
7 -95 c9 -134 -2 -172 -73 -240 -34 -33 -65 -55 -78 -55 -30 0 -30 -28 -2 -64
12 -15 24 -47 27 -71 3 -32 11 -49 28 -60 13 -8 24 -25 24 -38 1 -38 35 -101
78 -139 53 -48 62 -66 62 -126 0 -28 9 -69 20 -93 17 -39 20 -66 20 -225 0
-143 3 -190 16 -220 11 -26 14 -52 9 -83 -3 -25 -7 -76 -8 -112 -2 -63 -4 -69
-44 -112 -24 -26 -43 -54 -43 -63 0 -9 12 -53 26 -98 39 -122 71 -176 105
-176 30 0 149 -70 149 -88 0 -8 11 -35 25 -58 l25 -43 -42 -29 c-78 -53 -1013
-658 -1033 -669 -36 -18 -372 -86 -390 -79 -15 5 -17 14 -12 59 6 45 3 58 -17
88 -21 30 -33 37 -91 49 -79 16 -111 47 -170 159 -37 70 -48 81 -399 379
-1022 871 -1027 875 -1022 902 3 14 8 62 12 108 4 51 10 82 18 82 6 0 32 23
57 50 l46 50 101 0 c77 0 117 5 168 22 54 18 73 20 105 11 34 -9 43 -7 81 15
24 14 58 38 76 54 20 17 44 28 62 28 20 0 35 8 46 25 9 14 25 25 36 25 10 0
30 7 43 16 19 13 25 25 25 54 0 40 13 50 72 50 19 0 36 11 58 39 27 33 39 40
78 45 151 17 172 22 196 45 37 35 39 52 11 112 -28 62 -32 123 -10 176 12 27
13 44 5 72 -5 20 -10 59 -10 87 0 27 -5 55 -12 62 -9 9 -5 12 19 12 70 0 95
12 122 56 15 25 34 44 44 44 10 0 29 7 42 16 14 9 32 13 41 10 9 -4 31 -2 48
3 17 6 42 13 56 15 14 3 49 23 79 45 62 47 73 49 296 57 298 11 291 11 314
-10 33 -30 105 -25 175 13 32 17 60 31 62 31 2 0 19 -8 39 -17z m-1818 -146
c25 -53 60 -75 89 -59 13 7 26 6 47 -5 28 -14 87 -19 156 -13 27 2 39 -3 57
-23 19 -22 32 -27 67 -27 25 0 49 -6 55 -13 13 -15 17 -174 7 -273 -6 -63 -5
-76 18 -120 37 -73 16 -103 -78 -116 -132 -18 -170 -27 -180 -44 -22 -38 -58
-64 -90 -64 -43 0 -63 -18 -73 -64 -6 -32 -13 -41 -37 -49 -17 -5 -41 -20 -56
-33 -14 -13 -33 -24 -43 -24 -22 0 -69 -24 -86 -45 -28 -34 -86 -55 -134 -49
-31 5 -65 0 -113 -15 -55 -16 -84 -19 -136 -14 -83 7 -150 -15 -172 -57 -8
-15 -28 -34 -45 -41 -34 -16 -31 0 -56 -289 -9 -107 -17 -197 -19 -198 -2 -2
-102 2 -222 9 -120 6 -231 12 -247 13 -27 1 -30 -3 -42 -49 -6 -27 -21 -104
-33 -170 -12 -66 -27 -144 -33 -172 l-11 -53 -63 0 c-61 0 -63 -1 -98 -42 -20
-23 -37 -49 -37 -57 -1 -9 -4 -77 -8 -151 l-6 -135 -25 2 c-14 0 -150 5 -303
9 -247 6 -277 9 -272 23 2 9 9 37 14 63 12 67 35 98 71 98 27 0 33 7 66 72 19
40 41 80 49 88 7 8 22 34 33 56 13 25 47 62 86 92 35 28 72 61 81 74 35 50 85
133 85 143 0 35 63 135 111 178 87 76 100 90 113 122 7 17 33 54 58 84 44 53
70 68 163 94 22 6 68 30 103 54 35 24 75 43 88 43 50 0 156 78 222 164 l46 60
7 117 8 117 55 72 c31 40 56 80 56 89 0 18 14 33 119 126 47 41 83 65 98 65
13 0 36 6 51 14 15 7 52 19 82 26 82 19 103 33 142 97 49 79 88 159 88 178 0
9 13 30 30 46 42 43 69 36 97 -24z m2554 -589 c35 -28 42 -29 115 -27 65 2 91
-2 144 -23 36 -14 91 -33 124 -44 71 -22 103 -45 111 -82 3 -15 25 -53 49 -83
40 -51 48 -57 92 -63 147 -19 308 -80 372 -139 19 -17 35 -21 92 -21 78 1 86
6 130 74 l31 49 -19 38 c-11 21 -22 62 -24 91 -5 50 -3 56 29 95 20 23 56 51
82 63 61 27 181 38 224 19 18 -7 53 -19 79 -25 43 -11 48 -16 54 -46 5 -28 11
-34 38 -38 17 -3 47 -8 66 -11 19 -3 69 -10 110 -14 70 -7 78 -11 119 -50 31
-29 50 -39 60 -34 38 18 227 -11 274 -41 14 -9 48 -15 94 -15 75 0 148 -14
158 -31 3 -6 22 -10 42 -10 39 0 101 32 168 85 54 44 81 51 106 29 17 -15 25
-16 51 -6 38 14 110 2 170 -29 59 -30 157 -36 243 -14 37 9 71 13 75 8 4 -4
28 -70 54 -146 40 -116 46 -142 37 -165 -5 -15 -16 -80 -22 -145 -14 -139 -24
-151 -82 -111 -21 14 -37 28 -37 33 0 5 -18 20 -40 34 -29 20 -41 36 -46 63
-4 20 -23 55 -45 80 -21 24 -41 60 -45 79 -8 47 -30 64 -49 39 -24 -33 -24
-54 1 -83 13 -16 24 -39 24 -52 0 -34 65 -116 133 -167 39 -29 56 -49 53 -59
-6 -15 -3 -22 47 -121 15 -28 27 -58 27 -66 0 -19 86 -173 121 -219 17 -20 37
-54 46 -75 8 -20 34 -57 57 -83 22 -25 51 -57 62 -71 12 -14 28 -28 35 -30 11
-4 10 -9 -4 -25 -13 -15 -17 -34 -15 -73 3 -51 1 -54 -29 -72 -25 -15 -37 -17
-52 -9 -17 10 -20 7 -26 -22 -11 -48 -23 -57 -75 -57 -46 0 -50 -2 -84 -50
-37 -52 -58 -60 -98 -39 -23 12 -166 13 -884 3 l-461 -7 -7 194 c-3 107 -11
381 -16 609 -8 309 -15 432 -26 482 -18 76 -21 156 -9 211 6 28 3 47 -10 77
-17 37 -17 41 -1 66 10 14 15 28 13 31 -3 2 -13 -7 -23 -22 -14 -22 -15 -32
-5 -64 13 -46 14 -106 2 -129 -9 -17 -7 -31 25 -187 13 -67 33 -843 35 -1415
l1 -195 -54 -3 c-80 -4 -98 -10 -98 -33 0 -15 -5 -19 -15 -15 -8 3 -306 154
-661 336 l-647 330 -106 -58 c-59 -33 -117 -65 -130 -73 -21 -13 -25 -11 -59
27 l-37 42 -184 36 c-101 20 -190 41 -198 48 -18 15 -53 82 -53 102 0 14 -140
96 -165 96 -21 0 -54 48 -65 94 -6 22 -17 55 -24 71 -33 73 -31 89 18 144 44
49 46 54 46 113 0 34 5 76 12 95 10 27 9 42 -5 86 -22 69 -25 389 -4 382 6 -2
30 8 52 23 l40 28 0 74 c0 65 3 75 20 85 12 5 41 29 65 53 24 23 50 42 57 42
27 0 62 24 71 49 5 14 8 48 6 74 -2 45 0 47 19 41 12 -4 38 -20 58 -36z
m-3062 -1048 c144 -124 257 -226 250 -229 -6 -2 -53 2 -103 8 -50 6 -110 14
-132 17 l-42 5 -6 -203 c-3 -112 -9 -473 -12 -803 l-6 -600 26 -15 c25 -13 26
-18 21 -54 -4 -23 -13 -51 -21 -63 -17 -27 1 -26 -357 -13 -232 8 -250 10
-271 29 -12 12 -34 21 -49 21 -22 0 -27 -5 -27 -24 0 -29 -24 -40 -53 -24 -30
16 -109 17 -127 2 -25 -21 -91 -11 -105 17 -13 23 -13 23 -29 -15 -9 -21 -16
-44 -16 -51 0 -18 -71 -62 -93 -57 -9 2 -27 22 -39 45 -11 23 -33 60 -49 82
-15 22 -30 59 -34 83 -6 38 -12 45 -53 67 -26 14 -64 40 -86 57 -36 31 -43 33
-107 31 -37 -1 -77 -7 -88 -12 -27 -15 -138 -14 -147 0 -4 7 2 30 13 53 44 87
52 117 59 212 3 55 13 117 20 139 19 55 17 78 -6 108 -26 33 -25 57 4 115 13
26 21 52 19 59 -2 6 2 24 10 40 12 24 12 36 -3 93 -13 54 -20 66 -39 68 -12 2
-30 -2 -39 -10 -15 -12 -16 -11 -2 5 13 18 28 19 235 13 121 -4 256 -9 301
-12 l81 -6 6 151 c5 131 8 156 27 186 29 47 47 55 119 55 34 0 61 2 61 4 0 2
11 60 24 128 13 67 32 165 41 216 l18 92 61 0 c34 -1 106 -5 161 -10 55 -5
141 -10 190 -11 l90 -2 6 44 c4 24 10 79 14 122 4 43 10 77 14 75 4 -2 126
-104 270 -228z m71 -225 c30 -3 93 -11 139 -17 l84 -11 366 -310 c450 -381
436 -368 476 -447 18 -36 50 -84 71 -107 33 -36 49 -44 104 -56 85 -18 109
-48 102 -131 -4 -51 -3 -56 19 -64 15 -6 51 -3 103 9 44 10 81 17 81 16 7 -13
-34 -360 -43 -369 -7 -7 -12 -30 -12 -52 0 -108 -10 -140 -60 -194 -40 -43
-54 -52 -83 -52 -19 0 -45 -9 -59 -20 -23 -18 -37 -19 -174 -14 -141 5 -153 4
-218 -20 -39 -13 -73 -23 -77 -20 -4 2 -40 8 -80 14 -71 8 -74 8 -105 -19 -21
-19 -47 -30 -82 -35 -43 -5 -59 -14 -103 -57 -35 -33 -57 -48 -68 -44 -9 4
-29 9 -45 12 -33 7 -56 -15 -56 -53 0 -14 -8 -25 -20 -29 -11 -3 -28 -16 -37
-28 -36 -44 -50 -50 -75 -33 -35 25 -65 20 -83 -14 -8 -16 -15 -35 -15 -43 0
-8 -9 -26 -20 -40 -11 -14 -23 -46 -26 -71 -8 -55 -17 -64 -73 -68 -40 -3 -44
-6 -57 -43 -34 -95 -43 -122 -49 -162 -5 -34 -16 -51 -48 -78 -38 -33 -43 -35
-54 -18 -7 9 -10 25 -7 36 6 18 -20 57 -37 57 -4 0 -45 -25 -91 -55 l-82 -56
-17 22 -17 22 -36 -21 -37 -22 -15 35 c-7 19 -14 44 -14 55 0 11 -11 30 -25
42 -21 18 -25 30 -24 72 1 28 -3 69 -10 91 -6 22 -13 56 -16 76 -8 51 -40 59
-100 23 -44 -25 -60 -26 -126 -8 -9 2 -32 -7 -52 -20 -35 -24 -36 -24 -42 -5
-4 11 -15 19 -28 19 -11 0 -34 12 -49 27 -24 23 -28 35 -28 81 0 61 -21 104
-57 121 -26 12 -30 42 -8 61 17 14 20 53 5 80 -6 11 -7 38 -4 60 6 34 14 46
45 66 31 19 39 30 39 54 0 41 19 48 27 9 5 -26 8 -29 17 -17 19 26 187 48 211
28 24 -20 65 -4 65 25 0 31 25 33 56 4 20 -18 40 -21 205 -29 101 -5 239 -9
306 -10 141 0 146 3 158 95 7 49 6 51 -21 63 l-27 13 6 387 c4 213 10 570 14
795 6 366 8 407 22 403 9 -3 41 -7 71 -11z m3045 -405 l170 -32 40 -45 40 -44
125 71 c68 38 131 70 138 70 8 0 100 -44 205 -99 106 -54 309 -158 452 -231
143 -73 348 -178 456 -233 l196 -100 6 -210 c4 -116 7 -276 7 -356 l0 -147
-74 0 c-42 0 -85 -5 -98 -13 -23 -12 -24 -15 -14 -51 8 -33 7 -42 -7 -58 -9
-10 -17 -23 -17 -28 0 -5 -14 -22 -31 -37 -25 -22 -30 -32 -25 -53 5 -19 0
-35 -19 -59 -20 -27 -25 -43 -23 -84 2 -34 -3 -55 -14 -68 -32 -37 -31 -58 6
-87 35 -26 50 -66 63 -160 4 -28 16 -49 39 -72 20 -19 34 -41 34 -55 0 -23 -3
-24 -62 -24 -80 0 -115 -23 -151 -99 -17 -36 -37 -61 -56 -71 -16 -8 -36 -27
-43 -42 -7 -15 -33 -38 -58 -51 -25 -13 -53 -31 -62 -39 -13 -12 -30 -14 -69
-10 -36 4 -60 2 -80 -8 -15 -8 -38 -15 -49 -15 -32 0 -80 -31 -80 -52 0 -9 9
-22 20 -28 23 -12 27 -40 5 -40 -8 0 -19 -9 -25 -20 -23 -42 -147 -80 -165
-50 -12 19 -52 10 -90 -20 -51 -41 -68 -44 -107 -20 l-35 20 -26 -20 c-14 -11
-47 -30 -73 -42 -46 -20 -48 -20 -61 -2 -7 10 -20 41 -28 68 -20 68 -50 107
-150 200 -49 46 -85 87 -85 98 0 69 61 100 173 91 72 -6 79 -1 49 38 -10 13
-28 56 -41 96 -19 59 -21 75 -11 94 15 27 6 102 -15 132 -9 12 -20 38 -25 59
-17 60 -41 82 -90 83 -39 0 -44 3 -53 29 -7 21 -5 37 7 63 9 18 16 45 16 58 0
21 -5 25 -28 25 -15 0 -34 -6 -41 -12 -10 -11 -11 -8 -7 12 3 14 8 54 11 90
l6 65 158 160 159 160 11 105 c6 58 13 148 16 199 5 95 21 180 52 278 16 53
16 53 -10 102 -17 31 -27 64 -27 92 0 29 -10 60 -31 97 -24 43 -29 60 -23 85
14 64 -8 167 -36 167 -6 0 -3 -12 7 -27 14 -21 18 -48 18 -114 0 -64 4 -92 16
-105 25 -31 39 -72 39 -117 0 -24 8 -56 20 -75 22 -36 25 -69 10 -119 -5 -18
-14 -48 -20 -65 -16 -57 -38 -238 -45 -373 l-6 -130 -160 -161 -161 -161 -9
-74 c-4 -41 -8 -76 -9 -79 0 -3 -39 -26 -86 -50 -57 -29 -89 -52 -95 -67 -14
-36 -37 -39 -88 -11 -45 25 -49 26 -189 20 l-144 -5 -49 -38 c-44 -35 -54 -39
-108 -39 -55 0 -62 3 -122 50 -57 44 -69 50 -115 50 -29 0 -58 -6 -70 -15 -29
-22 -87 -19 -110 6 -22 24 -128 79 -153 79 -9 0 -33 9 -54 20 -43 23 -64 25
-70 8 -2 -9 -28 -13 -80 -13 -43 0 -81 -5 -87 -11 -6 -6 -15 -37 -19 -68 -6
-46 -15 -64 -43 -94 -46 -48 -54 -65 -63 -132 l-8 -55 -47 53 c-59 66 -84 68
-133 12 -40 -47 -47 -41 -47 44 l0 52 -56 32 c-31 18 -62 32 -70 32 -8 0 -30
10 -49 23 -29 18 -35 28 -35 57 0 24 -9 47 -28 70 -43 52 -52 74 -52 125 0 25
-5 55 -10 65 -8 15 -7 18 4 14 7 -3 49 7 92 22 76 26 84 27 220 20 115 -5 144
-3 160 9 10 8 29 15 40 15 38 0 79 24 123 72 42 46 43 49 48 130 3 46 11 92
18 103 6 11 18 92 24 180 7 88 16 171 20 184 6 20 18 27 67 38 32 8 77 19 99
24 24 6 260 154 575 360 344 224 542 347 555 345 11 -2 97 -18 190 -36z m3774
-73 c6 -8 27 -18 46 -21 20 -4 35 -13 35 -21 0 -7 25 -35 55 -60 30 -26 55
-56 55 -65 0 -10 12 -42 27 -72 15 -29 30 -75 34 -103 45 -318 63 -378 122
-410 21 -11 37 -22 37 -26 0 -3 16 -22 35 -42 19 -20 35 -43 35 -51 0 -18 -39
-56 -57 -56 -24 0 -74 -30 -111 -67 -28 -28 -37 -48 -47 -102 -14 -71 -19 -88
-59 -224 l-26 -88 27 -64 26 -64 -26 -83 c-14 -46 -31 -111 -38 -145 -12 -62
-12 -63 -45 -63 -19 0 -34 -4 -34 -10 0 -5 -24 -37 -54 -70 -47 -52 -55 -67
-54 -100 0 -21 -5 -62 -12 -90 -11 -44 -17 -53 -51 -70 -24 -13 -40 -29 -43
-43 -2 -12 -10 -44 -16 -72 -7 -27 -12 -68 -11 -90 7 -136 -1 -168 -46 -195
-25 -15 -44 -18 -72 -14 -33 5 -39 3 -56 -22 -14 -22 -16 -36 -9 -73 9 -44 11
-46 55 -57 65 -16 86 -30 141 -88 84 -90 96 -105 103 -128 4 -13 19 -43 34
-68 14 -25 33 -58 41 -75 13 -25 61 -66 90 -77 4 -2 10 -19 12 -38 l3 -35
-109 -3 c-123 -3 -110 3 -238 -118 -76 -72 -113 -82 -155 -42 l-23 22 -31 -23
c-25 -19 -41 -22 -87 -20 -32 2 -67 -2 -79 -9 -12 -7 -24 -8 -27 -3 -10 15
-56 19 -97 9 -36 -10 -44 -7 -95 23 -38 23 -66 50 -86 82 -42 67 -60 74 -103
41 -33 -25 -37 -26 -48 -9 -13 16 -15 16 -47 -3 l-34 -21 -23 25 c-15 16 -32
24 -46 22 -16 -2 -39 11 -72 40 -26 23 -51 42 -55 42 -10 0 -30 47 -30 70 0
21 -48 65 -94 84 -47 20 -69 50 -81 114 l-11 56 -92 64 c-70 49 -93 70 -102
97 -11 33 -62 72 -119 90 -25 8 -161 137 -161 154 0 5 4 12 9 15 15 10 24 122
12 144 -13 24 -102 112 -113 112 -4 0 -8 16 -8 36 0 45 -26 101 -55 120 -17
11 -23 25 -23 50 0 20 -5 41 -11 47 -6 6 -11 26 -11 45 0 34 -36 82 -70 94
-12 4 -9 13 13 46 25 35 28 47 22 82 -6 37 -4 46 24 81 28 34 30 41 19 60 -12
18 -10 24 20 48 17 15 32 32 32 37 0 5 9 20 19 33 15 20 17 31 9 59 -5 18 -7
36 -4 39 12 12 94 22 139 16 l48 -6 -1 382 c-1 211 0 384 2 386 2 2 37 7 78
12 l75 8 3 167 2 166 73 6 c39 3 338 8 664 11 548 6 593 5 618 -11 35 -23 64
-9 102 48 27 40 32 43 76 44 54 1 72 13 80 53 5 23 10 28 26 24 12 -3 35 4 53
15 33 21 52 18 77 -11z m537 -900 c4 -12 23 -47 44 -77 47 -71 80 -153 80
-199 0 -63 28 -102 89 -127 56 -22 81 -45 81 -75 0 -9 14 -22 33 -30 17 -7 47
-25 65 -41 18 -15 41 -28 52 -28 12 0 35 -21 60 -55 25 -34 54 -61 77 -70 20
-9 43 -24 50 -35 8 -11 21 -20 29 -20 8 0 14 -7 14 -15 0 -23 47 -92 75 -111
14 -9 25 -20 25 -25 0 -4 -20 -17 -45 -28 -29 -13 -49 -29 -55 -46 -6 -15 -21
-41 -35 -59 -29 -38 -55 -107 -55 -146 0 -22 7 -31 36 -45 23 -11 39 -13 47
-7 7 6 37 24 68 41 51 28 58 29 70 15 11 -13 9 -22 -10 -57 -27 -51 -23 -67
49 -177 79 -120 113 -140 394 -231 234 -76 244 -79 339 -79 54 0 97 -4 95 -8
-1 -5 -104 -133 -228 -285 l-225 -276 -101 0 c-96 -1 -105 -3 -188 -41 -50
-23 -86 -46 -86 -54 0 -24 -31 -48 -54 -42 -12 3 -61 -8 -111 -24 -110 -37
-125 -37 -156 -4 -22 23 -28 25 -89 19 -63 -6 -67 -8 -112 -58 l-46 -52 -74 1
c-157 3 -169 5 -217 32 -138 78 -190 109 -225 134 -41 30 -65 35 -82 18 -17
-17 -68 6 -60 26 4 9 4 31 0 49 -4 25 -14 36 -44 49 -29 13 -44 29 -61 64 -13
26 -33 62 -46 81 -13 19 -23 41 -23 51 0 17 -28 52 -113 139 -55 57 -76 70
-134 84 l-48 12 -3 48 c-4 60 10 80 51 71 19 -4 43 0 67 11 32 14 41 26 54 66
18 55 20 87 6 124 -7 18 -6 37 5 68 8 23 15 53 15 67 1 48 11 66 46 79 19 7
38 20 43 29 13 26 34 149 27 161 -8 12 111 147 127 143 6 -2 21 -1 33 2 19 5
22 15 28 76 4 39 18 100 32 136 29 78 30 113 4 164 -11 22 -20 50 -20 62 0 13
18 84 40 157 22 73 40 148 40 166 0 27 10 44 49 83 30 32 60 52 82 57 40 8 68
31 80 64 8 19 12 21 24 11 8 -6 17 -22 21 -33z m-8889 -98 c15 -6 38 -20 51
-32 13 -12 45 -34 70 -48 42 -23 47 -30 50 -64 2 -24 14 -53 31 -74 16 -20 40
-60 55 -88 18 -36 34 -55 51 -59 27 -7 30 -16 15 -44 -7 -14 -6 -29 7 -55 16
-33 16 -37 0 -64 -25 -43 -21 -68 12 -86 35 -17 39 -28 43 -115 3 -60 1 -65
-22 -77 -55 -28 -173 -4 -245 52 -31 23 -37 24 -252 41 -62 5 -74 4 -79 -10
-10 -27 -54 -45 -81 -33 -26 11 -73 -13 -73 -38 0 -20 -39 -19 -47 0 -3 9 2
22 12 29 17 12 17 15 2 37 -12 16 -17 44 -17 87 0 53 4 67 22 81 l21 18 -24
99 c-19 76 -30 101 -46 109 -11 6 -28 17 -38 25 -15 12 -15 15 7 26 13 8 33
13 44 14 43 0 123 120 124 183 0 57 14 67 88 67 38 0 72 4 78 9 5 5 27 11 49
14 22 2 45 4 52 5 6 1 24 -3 40 -9z m2284 -384 c43 -7 59 -34 59 -105 0 -41 6
-56 37 -97 34 -43 40 -59 42 -115 1 -11 36 -34 107 -67 103 -50 105 -52 99
-80 -3 -15 -1 -49 6 -75 11 -43 10 -49 -10 -70 -15 -16 -39 -26 -72 -30 -36
-5 -60 -16 -87 -39 l-37 -33 -110 7 c-60 3 -137 3 -170 -2 -63 -8 -303 -4
-336 6 -23 8 -35 -30 -24 -78 4 -17 7 -52 6 -77 0 -25 -1 -65 -1 -89 0 -46 -5
-48 -24 -9 -24 48 -142 88 -172 58 -5 -5 -38 -13 -73 -17 -55 -5 -66 -4 -77
12 -8 11 -14 29 -14 41 0 31 -56 77 -84 68 -20 -6 -20 -6 -4 12 9 11 21 42 26
69 5 28 21 82 35 120 l26 70 39 -3 c33 -3 43 1 61 24 11 15 21 40 21 56 0 17
9 47 20 67 10 20 26 53 34 74 17 42 32 46 70 16 l27 -21 40 40 c22 23 48 42
57 44 9 2 19 17 23 36 9 47 18 52 63 42 47 -10 70 -1 105 42 28 35 77 58 121
58 19 0 41 11 62 29 20 18 41 28 53 26 11 -2 36 -6 56 -10z m946 -235 c21 -11
46 -20 56 -20 23 0 149 -64 166 -84 22 -27 68 -30 105 -7 58 36 104 29 175
-28 34 -27 75 -53 92 -56 46 -10 100 3 139 34 61 48 72 51 216 51 121 0 141
-2 170 -21 45 -28 85 -22 102 15 9 18 31 35 61 48 25 11 54 27 63 35 10 9 26
13 37 10 11 -3 28 1 38 9 26 19 53 17 53 -3 -1 -10 -9 -34 -19 -53 -17 -31
-17 -38 -5 -73 8 -22 14 -47 14 -57 0 -9 10 -25 21 -36 12 -10 35 -37 50 -58
59 -79 25 -176 -61 -176 -35 0 -40 -4 -59 -43 -12 -24 -21 -53 -21 -64 0 -11
-12 -37 -26 -58 -14 -21 -28 -53 -31 -71 -4 -24 -14 -37 -39 -50 -24 -13 -35
-27 -39 -49 -16 -107 -14 -104 -55 -125 -44 -23 -70 -54 -70 -87 0 -12 -11
-43 -25 -69 -14 -26 -25 -53 -25 -61 0 -23 -47 -89 -87 -122 -40 -33 -63 -39
-63 -17 0 20 -49 76 -67 76 -8 0 -24 -5 -36 -12 -12 -6 -38 -12 -57 -13 -28
-1 -46 -11 -83 -47 -27 -25 -68 -57 -93 -69 -27 -15 -44 -31 -44 -42 0 -10 -7
-28 -15 -41 -9 -13 -15 -41 -14 -62 1 -22 -5 -54 -15 -73 -16 -30 -21 -33 -51
-28 -33 5 -34 5 -37 -31 l-3 -37 -85 -1 c-49 -1 -108 -8 -140 -18 -67 -21
-142 -16 -171 10 -28 25 -79 114 -79 139 0 11 -7 29 -15 39 -8 11 -15 27 -15
35 0 18 -91 101 -135 123 -39 20 -197 39 -253 31 l-43 -6 3 216 c3 195 5 217
22 236 11 12 27 21 36 21 12 0 24 15 35 43 9 23 29 58 43 77 17 21 25 44 24
61 -2 18 3 32 17 41 35 25 36 61 3 132 -26 55 -28 67 -16 77 10 8 12 23 8 49
-10 59 19 140 66 188 40 42 47 59 52 122 l3 35 83 3 c61 2 84 7 89 17 7 19 6
19 50 -5z m-3112 -150 c63 -55 207 -79 260 -44 23 15 26 15 55 -10 17 -14 37
-23 45 -20 9 4 16 -3 20 -19 l7 -25 45 28 c36 23 50 27 70 19 39 -15 75 -10
116 15 62 38 86 20 87 -64 0 -19 7 -46 14 -59 8 -15 11 -41 8 -69 -4 -37 -1
-48 15 -61 27 -21 65 -139 52 -162 -14 -27 -11 -56 12 -101 17 -33 19 -46 10
-65 -11 -24 0 -63 31 -105 16 -22 3 -35 -17 -18 -8 7 -25 10 -39 6 -23 -6 -23
-9 -18 -71 5 -72 0 -77 -51 -50 -25 13 -28 13 -33 -3 -14 -48 -30 -67 -55 -63
-54 7 -59 16 -59 103 0 123 -31 145 -122 87 -47 -30 -49 -31 -68 -14 -11 10
-17 22 -14 27 11 17 -6 78 -21 78 -17 0 -20 16 -5 25 12 8 3 68 -15 105 -8 14
-29 40 -48 59 -30 28 -40 32 -64 27 -15 -4 -41 -10 -58 -13 -41 -8 -55 -19
-135 -107 -41 -44 -72 -71 -74 -64 -3 7 -7 29 -10 49 -7 39 -36 70 -128 138
-61 46 -75 69 -59 99 7 14 6 24 -4 38 -8 11 -15 34 -15 52 0 43 36 76 104 96
66 20 86 41 86 94 0 83 26 104 75 62z m4698 -90 c10 -30 23 -60 29 -67 19 -24
27 -86 16 -129 -10 -36 -8 -50 12 -105 12 -35 29 -74 36 -86 12 -19 11 -22 -6
-28 -10 -3 -35 -3 -55 1 -54 10 -123 -13 -140 -47 -31 -59 -22 -79 72 -165 89
-81 143 -152 143 -188 0 -12 9 -36 21 -55 11 -18 19 -34 17 -35 -38 -24 -88
-71 -88 -82 0 -8 -8 -27 -18 -42 -10 -15 -22 -34 -27 -43 -6 -9 -23 -35 -38
-58 -25 -38 -27 -47 -20 -89 4 -26 6 -59 5 -74 -3 -24 32 -119 58 -158 6 -8
19 -28 30 -45 11 -16 20 -44 20 -62 0 -26 12 -42 72 -98 89 -82 112 -118 103
-159 -3 -17 -9 -46 -12 -64 -5 -32 -7 -34 -37 -28 -17 3 -72 12 -123 19 -59 9
-99 20 -112 31 -16 14 -43 18 -153 21 -73 2 -198 8 -278 14 -93 7 -157 8 -178
2 -43 -13 -209 -2 -222 15 -8 8 -6 31 6 77 17 63 17 67 -1 107 -11 23 -29 49
-42 57 -12 8 -25 23 -28 33 -3 10 -24 23 -51 30 -52 15 -59 23 -55 67 2 28 -2
34 -31 47 -18 8 -27 15 -21 15 24 2 54 78 47 119 -4 28 -2 41 10 51 9 7 16 24
16 37 0 14 8 25 20 29 24 8 120 82 138 107 8 11 26 18 46 18 19 0 49 6 67 14
42 17 62 6 84 -48 8 -20 18 -36 20 -36 16 0 87 54 109 82 23 30 71 135 98 213
19 53 24 60 66 83 42 23 43 27 57 118 5 34 13 45 40 60 24 12 34 26 38 49 3
17 16 48 30 69 14 20 28 51 32 69 4 18 13 47 21 65 13 28 20 32 51 32 26 0 45
8 65 27 24 23 28 35 28 79 0 49 -4 57 -50 110 -64 73 -64 86 -3 82 l47 -3 19
-55z m4906 11 c12 -16 21 -36 21 -45 0 -20 -39 -56 -60 -56 -9 0 -25 -8 -34
-19 -16 -18 -16 -19 9 -25 14 -4 30 -4 36 0 5 3 17 0 25 -7 13 -10 12 -14 -3
-32 -10 -10 -45 -32 -78 -49 -33 -16 -67 -34 -76 -40 -20 -14 -68 -3 -76 17
-8 22 24 114 56 160 15 22 30 48 34 57 6 16 87 64 114 67 6 0 21 -12 32 -28z
m-6897 -93 c55 -58 57 -62 41 -80 -16 -18 -15 -22 10 -74 33 -66 35 -114 7
-132 -14 -8 -20 -23 -20 -48 0 -24 -9 -46 -26 -67 -14 -17 -32 -48 -41 -69 -9
-24 -22 -38 -33 -38 -9 0 -25 -9 -36 -21 -17 -19 -19 -43 -24 -243 l-5 -221
-40 -6 c-22 -3 -52 -9 -67 -13 -48 -14 -53 12 -49 256 3 210 3 219 -19 260
-13 24 -25 63 -26 87 -2 28 -13 58 -31 84 -48 68 -56 88 -44 100 6 6 11 21 11
33 0 32 71 92 117 99 55 9 74 22 132 93 28 34 59 62 68 62 9 0 42 -28 75 -62z
m8242 23 c13 -14 14 -24 6 -45 -5 -15 -10 -58 -10 -96 0 -68 0 -68 30 -75 17
-4 30 -8 30 -11 0 -2 -17 -27 -37 -55 -31 -44 -37 -62 -43 -123 -5 -56 -16
-90 -51 -161 -25 -49 -61 -111 -81 -137 -22 -29 -39 -64 -43 -90 -4 -24 -22
-66 -41 -94 -19 -28 -41 -76 -49 -108 -21 -80 -58 -148 -180 -331 -129 -194
-316 -401 -417 -460 -117 -68 -191 -123 -204 -152 -10 -25 -159 -168 -197
-190 -8 -4 -29 -33 -48 -63 -18 -30 -60 -84 -94 -121 -33 -36 -76 -86 -94
-112 l-34 -46 -39 61 -39 61 -10 340 -9 340 38 42 c20 23 62 72 92 108 62 73
84 87 141 87 36 0 41 3 54 33 12 28 28 40 96 71 78 36 84 37 177 34 l96 -3
242 295 243 295 -117 6 c-112 5 -126 8 -347 82 -268 89 -309 113 -379 217 -64
96 -80 139 -62 159 29 34 38 61 25 77 -10 12 -7 19 11 39 l24 25 23 -22 c13
-12 34 -41 48 -64 19 -32 40 -50 87 -73 33 -17 68 -31 76 -31 9 0 45 14 81 31
36 17 75 35 86 40 11 5 58 8 105 6 91 -2 110 5 172 62 17 15 46 27 75 32 27 4
74 12 107 18 41 7 64 7 78 0 24 -13 62 -4 99 22 15 10 43 19 62 19 35 0 115
38 137 65 17 21 64 19 84 -4z m-8829 -203 c4 -18 20 -45 36 -60 28 -26 29 -30
29 -122 0 -81 2 -94 15 -90 18 7 19 -11 4 -71 -10 -39 -9 -50 10 -87 15 -31
18 -45 9 -55 -33 -40 -24 -210 14 -295 15 -31 36 -63 47 -70 39 -24 17 -65
-31 -59 -9 1 -30 -5 -47 -13 -18 -10 -41 -13 -60 -10 -26 5 -36 1 -60 -25 -31
-34 -95 -61 -143 -61 -32 0 -117 -40 -137 -64 -19 -23 -50 -20 -117 10 -72 33
-69 30 -54 48 10 13 6 28 -19 83 -56 123 -60 187 -17 248 23 33 46 90 46 118
0 10 13 35 28 55 42 54 55 106 37 149 -8 19 -17 66 -20 105 -3 38 -7 73 -10
78 -2 4 2 22 11 39 14 28 14 35 -1 75 -9 24 -15 54 -13 67 l3 24 150 -2 c83
-2 175 1 205 6 30 5 60 9 67 10 6 0 15 -14 18 -31z m173 12 c14 0 16 -36 2
-45 -19 -11 -10 -50 18 -85 41 -50 52 -74 52 -116 0 -21 10 -52 23 -73 21 -34
22 -47 22 -216 0 -99 -2 -201 -5 -227 -3 -36 0 -51 14 -67 21 -23 22 -22 -52
-41 -36 -9 -46 -8 -67 7 -35 26 -75 115 -75 168 0 25 -5 54 -12 64 -9 15 -9
25 0 46 7 14 12 35 12 46 0 10 6 28 12 39 11 17 9 27 -11 63 -21 39 -23 48
-12 77 17 49 14 90 -5 90 -14 0 -16 9 -10 68 8 76 -1 109 -37 144 -14 12 -28
33 -31 45 -7 21 -5 21 71 17 43 -2 84 -4 91 -4z m-1175 -46 c-3 -8 0 -27 7
-43 l12 -30 31 20 c61 36 137 13 137 -42 0 -45 17 -59 75 -59 30 0 73 7 95 16
25 10 53 14 72 10 37 -7 98 -51 98 -71 0 -8 9 -20 20 -28 12 -8 18 -21 15 -29
-3 -8 1 -36 10 -62 21 -61 12 -117 -25 -159 -15 -18 -30 -49 -33 -70 -3 -21
-12 -50 -20 -65 -8 -15 -25 -45 -36 -67 -29 -53 -21 -124 25 -225 30 -67 32
-76 18 -87 -11 -8 -24 -9 -41 -2 -32 12 -220 11 -303 -1 -36 -6 -100 -15 -144
-20 -55 -7 -92 -18 -125 -37 -48 -28 -158 -83 -166 -83 -3 0 -5 20 -5 44 0 29
7 52 21 70 15 19 22 44 24 81 2 51 0 57 -48 114 -34 42 -56 61 -72 61 -36 0
-75 37 -75 71 0 22 5 29 19 29 10 0 26 12 36 26 14 22 15 31 5 53 -7 14 -16
38 -20 53 -8 26 -7 26 26 21 l34 -6 0 66 c0 36 5 69 10 72 6 4 22 0 35 -9 31
-21 32 -20 37 9 4 17 -2 31 -19 47 -21 20 -24 29 -19 66 4 32 0 55 -14 87 -11
24 -20 48 -20 54 0 26 26 61 57 78 35 18 35 18 50 -4 l15 -23 27 21 c14 11 53
37 86 59 54 35 62 37 77 23 9 -8 14 -21 11 -29z m5074 -90 l65 -64 -7 -52 c-3
-29 -11 -63 -17 -74 -14 -29 7 -72 48 -99 18 -11 41 -34 53 -52 12 -17 34 -34
49 -38 55 -13 110 -54 123 -90 10 -27 32 -48 96 -91 90 -61 97 -69 108 -129 9
-54 37 -89 87 -113 60 -28 80 -53 76 -94 l-3 -33 -70 -7 c-55 -6 -77 -4 -105
9 -47 22 -96 20 -125 -7 -31 -29 -71 -38 -127 -27 -41 8 -57 6 -119 -17 -56
-21 -81 -25 -119 -20 -43 6 -53 3 -94 -25 -26 -18 -46 -40 -46 -50 0 -37 -27
-46 -81 -27 -27 10 -62 16 -77 13 -15 -3 -62 0 -106 6 -64 9 -80 15 -86 32
-12 31 -30 42 -79 48 -27 3 -53 15 -70 31 -30 28 -52 32 -99 15 -33 -11 -55
-38 -66 -82 -3 -15 -18 -37 -32 -49 -14 -13 -24 -32 -23 -43 1 -11 1 -38 0
-60 l-1 -40 -53 1 c-29 1 -66 8 -82 16 -22 12 -36 13 -57 6 -20 -7 -42 -7 -71
0 -53 14 -82 -2 -91 -52 -4 -21 -14 -37 -25 -41 -10 -3 -21 -15 -24 -26 -5
-19 -15 -12 -86 57 -68 65 -81 83 -81 109 0 18 -9 44 -21 59 -51 65 -80 146
-85 238 -5 86 -4 89 27 136 61 88 66 97 73 119 9 29 73 79 112 87 18 4 54 21
80 38 l49 31 36 -21 37 -21 61 41 61 41 40 -18 c38 -17 41 -17 87 0 26 10 59
31 73 47 13 15 30 28 37 28 18 0 16 47 -2 54 -42 16 3 66 59 66 12 0 31 6 41
14 14 10 35 12 71 9 44 -5 59 -2 91 18 21 13 51 31 68 39 16 8 36 27 43 43 7
15 27 34 43 43 21 10 38 33 54 67 34 77 54 91 139 97 63 4 71 3 74 -13 2 -10
33 -48 69 -83z m-5899 -21 c38 -49 54 -113 36 -138 -19 -26 -17 -35 5 -35 23
0 34 -28 26 -63 -5 -19 -1 -29 16 -40 l22 -16 -33 -66 c-36 -71 -61 -95 -98
-95 -14 0 -33 -11 -44 -25 -24 -31 -41 -31 -95 -3 -29 16 -43 30 -43 44 0 11
-14 30 -31 43 -37 27 -62 82 -53 116 4 17 -2 39 -20 70 l-27 45 82 90 c63 68
89 90 108 90 14 0 33 5 41 10 8 5 29 10 47 10 24 0 38 -8 61 -37z m255 -247
c14 -11 17 -29 17 -98 l0 -85 39 -18 c48 -21 63 -17 83 24 l15 32 20 -55 c18
-49 19 -58 6 -76 -8 -11 -23 -20 -34 -20 -26 0 -34 -24 -19 -61 15 -36 45 -59
80 -60 17 0 38 -16 68 -50 38 -45 42 -55 42 -103 0 -39 -7 -66 -26 -100 -21
-38 -25 -53 -19 -89 l7 -42 -39 38 c-24 23 -48 37 -65 37 -32 0 -140 71 -164
108 -9 15 -45 54 -78 88 -34 33 -68 71 -78 85 -9 14 -43 39 -75 57 -47 25 -65
41 -86 80 -24 45 -25 50 -11 70 9 14 26 22 43 22 15 0 34 6 42 13 23 18 79
111 79 130 0 16 57 58 103 77 29 12 29 11 50 -4z m6357 -667 c0 -5 -7 -9 -15
-9 -9 0 -12 6 -9 15 6 15 24 11 24 -6z m-205 -9 c33 -17 45 -18 67 -9 18 7 51
9 94 4 61 -6 71 -11 115 -52 36 -34 53 -43 68 -38 15 4 29 -2 48 -21 26 -27
27 -27 60 -9 30 17 35 17 50 2 17 -14 21 -13 53 14 l35 30 25 -30 c14 -17 36
-44 49 -61 32 -42 94 -82 138 -89 45 -7 59 -44 38 -95 -9 -22 -12 -52 -8 -90
5 -48 9 -57 29 -62 74 -19 48 -68 -112 -205 -45 -39 -98 -172 -129 -324 -21
-106 -32 -139 -60 -180 -30 -45 -40 -77 -62 -198 -3 -16 2 -45 12 -67 13 -28
15 -50 10 -82 -14 -91 3 -328 27 -373 14 -25 15 -37 5 -72 -10 -38 -9 -46 11
-72 12 -17 22 -41 22 -54 0 -32 54 -103 91 -119 29 -13 75 -90 64 -108 -3 -4
2 -13 10 -20 32 -27 16 -37 -67 -43 -46 -4 -100 -7 -121 -7 -64 0 -100 -24
-132 -88 -29 -57 -29 -58 -26 -213 2 -130 0 -157 -13 -168 -24 -20 -30 -90
-11 -136 13 -33 26 -45 74 -68 72 -33 84 -34 127 -1 18 14 41 24 49 20 23 -8
18 -55 -9 -90 -13 -17 -27 -52 -31 -76 -4 -25 -11 -55 -16 -67 -19 -52 -86
-13 -160 91 -37 52 -67 82 -94 96 -52 26 -65 37 -99 83 -34 45 -58 47 -87 8
-20 -28 -24 -29 -78 -24 -58 6 -141 45 -176 83 -15 16 -30 20 -89 20 -65 0
-72 2 -102 31 l-32 31 -143 -1 c-82 0 -147 -5 -153 -11 -5 -5 -18 -10 -28 -10
-21 0 -24 30 -6 59 9 15 9 28 -1 59 -8 22 -10 45 -6 52 4 6 -6 27 -22 48 -27
34 -30 46 -41 172 -7 74 -12 172 -12 217 0 45 -3 88 -6 97 -5 13 -24 16 -108
16 l-101 0 -30 41 c-26 35 -31 38 -38 22 -7 -16 -18 -18 -82 -15 l-73 4 5 -40
c5 -35 1 -47 -26 -80 -17 -22 -31 -45 -31 -51 0 -7 -22 -11 -57 -11 -32 1
-101 -2 -155 -5 l-96 -7 -7 34 c-4 18 -22 61 -41 95 -19 34 -34 68 -34 76 0 9
-5 28 -11 44 -6 15 -13 51 -14 80 -2 28 -6 56 -9 62 -4 6 -105 10 -269 11
-144 0 -291 2 -327 3 -36 1 -90 -2 -120 -6 l-55 -8 23 23 c15 17 22 37 22 66
0 32 7 50 32 79 18 21 34 40 35 42 2 3 16 -5 31 -16 33 -25 65 -14 82 27 10
23 19 28 63 33 28 4 53 4 55 2 3 -3 5 -21 6 -42 1 -29 7 -40 28 -52 32 -18 42
-11 100 66 23 31 46 53 57 53 26 0 117 74 136 110 11 21 15 61 15 145 l0 116
48 52 c26 29 56 64 65 80 10 15 33 37 51 49 49 33 77 79 92 157 7 39 18 80 25
92 7 14 10 47 6 88 -5 59 -2 71 26 126 17 33 32 80 33 103 2 24 11 58 21 75
11 18 29 60 41 94 18 49 21 67 12 83 -17 33 -6 128 19 154 12 13 26 40 32 60
18 65 108 95 146 47 12 -15 33 -24 63 -28 49 -6 80 -27 80 -53 0 -19 65 -31
190 -36 36 -1 81 -9 101 -18 32 -13 38 -13 57 0 12 8 22 24 22 35 0 11 18 32
43 50 38 28 47 30 92 24 40 -5 64 -1 120 20 60 23 75 25 106 16 57 -17 83 -13
125 18 47 35 85 38 139 11z m1697 -87 c16 -14 24 -15 50 -5 24 9 36 8 59 -3
15 -8 31 -20 34 -25 4 -6 37 -26 73 -46 37 -20 94 -51 127 -69 54 -30 70 -34
170 -40 129 -8 158 1 195 60 12 19 29 35 38 36 19 1 38 4 95 14 25 5 37 4 37
-4 0 -6 14 -20 31 -30 33 -20 34 -20 138 14 20 6 14 -5 -33 -61 -31 -38 -72
-85 -91 -105 l-35 -36 7 -344 6 -344 44 -68 c23 -37 43 -76 43 -87 0 -32 -38
-60 -74 -53 -17 3 -35 6 -40 7 -5 0 -16 -21 -25 -48 -13 -40 -22 -51 -46 -59
-50 -16 -75 -46 -75 -88 0 -26 -11 -57 -35 -96 -19 -32 -35 -71 -35 -88 0 -29
-43 -106 -58 -105 -4 1 -68 45 -142 98 l-134 98 -15 59 c-9 37 -22 66 -35 75
-11 8 -142 88 -291 178 -148 89 -273 168 -277 175 -15 23 -8 37 31 61 30 19
38 30 34 45 -3 11 -13 23 -22 26 -10 3 -27 14 -40 26 l-22 20 31 39 c17 21 46
72 65 112 19 40 46 87 60 103 28 34 31 59 10 95 -8 14 -14 34 -15 45 0 27 -58
148 -75 158 -8 4 -13 20 -13 35 1 40 -12 74 -38 99 -34 31 -30 61 13 105 l37
38 110 0 c89 0 113 -3 128 -17z m-291 -144 c24 -22 29 -35 29 -72 0 -29 5 -47
14 -50 17 -7 61 -98 71 -147 4 -19 14 -47 21 -62 19 -37 18 -43 -15 -80 -16
-18 -39 -58 -52 -88 -25 -60 -68 -128 -94 -150 -12 -10 -24 -11 -50 -3 -26 8
-38 8 -53 -3 -13 -9 -47 -13 -102 -12 l-83 1 -34 -39 c-38 -44 -73 -106 -73
-128 0 -26 -36 -36 -128 -36 -75 0 -99 -4 -144 -25 -50 -24 -115 -34 -104 -17
2 4 14 55 25 112 19 96 69 242 95 281 6 9 39 39 74 68 77 64 120 125 105 149
-5 10 -21 22 -34 29 -31 16 -42 90 -22 147 9 27 10 49 4 72 -11 41 5 50 56 29
26 -11 39 -12 49 -4 8 7 33 8 69 4 49 -7 59 -5 88 18 l33 25 27 -24 c44 -38
74 -31 137 28 52 49 55 51 58 28 2 -13 17 -36 33 -51z m-2884 -58 c12 -6 36
-10 54 -9 48 1 79 -10 79 -30 0 -23 -36 -117 -57 -149 -9 -14 -18 -44 -19 -68
-1 -23 -15 -67 -31 -96 -23 -45 -28 -67 -29 -134 -1 -77 -36 -232 -63 -283 -6
-12 -31 -35 -56 -52 -25 -17 -52 -44 -60 -60 -9 -17 -36 -52 -60 -80 -25 -28
-45 -54 -45 -58 0 -146 -8 -231 -24 -257 -18 -31 -95 -88 -134 -100 -13 -4
-39 -31 -58 -61 -26 -40 -41 -54 -58 -54 -30 0 -49 23 -41 49 7 23 -11 64 -25
56 -5 -3 -30 -6 -55 -7 -43 0 -47 -3 -66 -39 -19 -38 -50 -52 -64 -29 -9 15
-74 40 -103 40 -14 0 -33 -6 -41 -14 -9 -8 -28 -18 -43 -21 -23 -6 -32 -2 -50
21 -13 15 -42 47 -65 71 -25 24 -38 45 -32 49 6 3 14 17 20 31 7 20 15 24 41
21 32 -3 33 -2 45 51 14 66 -2 101 -47 101 -28 0 -42 11 -53 41 -4 13 3 16 38
17 24 0 52 5 63 11 12 6 33 11 47 11 42 0 65 17 65 50 0 36 16 32 50 -14 23
-32 29 -34 84 -35 53 0 63 -4 93 -33 27 -26 33 -29 33 -13 0 10 15 36 33 59
30 37 34 49 36 110 1 38 6 77 11 87 6 10 10 35 10 57 0 42 -20 67 -77 96 -49
24 -44 56 17 120 43 46 50 59 50 93 0 25 -7 50 -19 64 -18 22 -27 24 -110 24
l-91 0 0 67 0 68 109 0 c95 0 112 -3 135 -21 15 -12 44 -23 64 -25 47 -5 138
-19 180 -29 31 -7 32 -6 32 24 0 18 7 46 16 63 13 24 13 35 4 58 -14 34 -7 63
26 95 13 13 24 32 24 43 0 10 5 23 11 29 14 14 178 10 206 -6z m-1132 -337
l-7 -91 -131 4 c-73 2 -151 6 -174 9 -47 6 -47 3 -8 89 12 28 25 59 29 71 11
36 48 48 133 41 43 -3 96 -2 118 2 49 8 50 5 40 -125z m240 118 l70 -7 3 -78
3 -77 77 5 c67 6 81 4 110 -14 27 -18 32 -26 32 -60 0 -34 -6 -47 -39 -78 -54
-52 -72 -89 -59 -119 6 -13 19 -26 30 -29 33 -11 78 -56 78 -79 0 -13 -4 -36
-10 -52 -5 -16 -11 -61 -13 -101 -3 -66 -6 -75 -39 -111 l-36 -40 -21 22 c-17
16 -35 21 -79 22 -53 1 -60 4 -99 43 -23 24 -47 40 -53 36 -5 -3 -10 -22 -10
-41 0 -19 -3 -34 -7 -35 -5 0 -21 -2 -38 -4 -16 -1 -51 -9 -76 -18 -29 -9 -51
-12 -60 -6 -22 14 -29 11 -29 -14 0 -33 27 -67 54 -67 45 0 59 -21 51 -78 -6
-47 -9 -51 -34 -50 -35 1 -51 -8 -51 -30 0 -10 -8 -22 -19 -29 -16 -10 -26 -3
-78 50 -34 34 -72 80 -86 103 -21 34 -55 67 -150 145 -5 4 -4 16 2 27 8 15 7
23 -3 31 -8 7 -17 27 -20 45 -5 24 -27 55 -72 101 -36 37 -63 69 -60 73 4 3
13 -4 21 -15 17 -24 55 -21 55 5 0 34 57 188 82 221 10 13 18 37 18 52 l0 29
159 0 159 0 6 33 c3 17 6 70 7 117 l2 85 76 -3 c42 -2 108 -7 146 -10z m3745
-404 c92 -54 98 -68 45 -99 -21 -13 -35 -29 -35 -40 0 -34 -75 -161 -108 -185
-13 -9 -21 -22 -18 -30 3 -7 -4 -16 -15 -19 -20 -7 -20 -7 -2 -27 12 -13 27
-18 45 -16 36 6 35 -2 -6 -28 -28 -18 -35 -19 -53 -7 -17 12 -23 11 -44 -6
-24 -19 -24 -19 -57 1 -31 19 -38 19 -75 8 -23 -8 -46 -17 -51 -22 -6 -4 -16
8 -24 30 -26 68 -25 87 2 131 31 49 33 74 6 101 -19 19 -19 20 1 30 11 6 17
15 14 20 -9 15 30 91 64 128 30 31 32 32 120 32 64 0 92 4 100 14 12 14 53 7
91 -16z m326 -366 l279 -169 13 -62 14 -61 134 -96 c74 -53 136 -99 138 -103
8 -13 -18 -84 -51 -142 -25 -43 -33 -68 -33 -107 0 -42 3 -52 20 -57 11 -3 20
-10 20 -15 0 -5 15 -28 34 -53 33 -43 33 -45 18 -78 -8 -19 -16 -63 -18 -99
-1 -36 -6 -84 -9 -108 -6 -33 -3 -47 10 -62 11 -12 13 -20 6 -25 -17 -10 -13
-33 11 -57 13 -13 22 -28 20 -35 -1 -7 5 -24 13 -37 12 -17 15 -35 10 -56 -6
-26 -4 -30 14 -30 11 0 22 -8 25 -18 4 -10 22 -26 41 -35 19 -9 35 -23 35 -30
0 -21 -86 -78 -132 -89 -23 -5 -51 -17 -63 -26 -12 -10 -48 -27 -79 -37 -53
-18 -59 -18 -100 -3 -49 18 -57 15 -116 -43 -21 -21 -36 -29 -48 -24 -9 3 -55
9 -102 11 -47 3 -95 10 -107 16 -12 6 -34 8 -50 4 -15 -4 -32 -6 -38 -6 -119
10 -126 12 -143 38 -13 20 -16 45 -15 110 2 72 -2 92 -24 139 -34 71 -60 89
-106 72 -31 -11 -42 -9 -103 15 -38 15 -80 35 -94 44 -33 22 -65 40 -155 86
-69 36 -77 42 -105 100 -17 33 -47 83 -66 110 -18 26 -34 60 -34 75 0 40 -46
104 -96 134 -49 30 -54 50 -22 84 20 22 21 24 5 60 -8 21 -16 52 -16 68 0 17
-9 52 -20 78 l-21 48 37 32 c20 18 42 37 48 42 17 15 75 113 75 128 0 7 7 22
15 33 18 23 19 48 3 91 -11 32 -10 34 25 67 41 38 43 50 23 131 -18 69 -22 74
-54 86 -45 17 -6 29 100 29 94 0 98 -1 115 -26 17 -26 16 -28 -10 -75 -30 -55
-33 -82 -12 -119 8 -14 14 -36 15 -49 0 -18 4 -22 18 -16 101 41 95 41 146 7
54 -37 61 -39 47 -15 -14 26 18 47 41 26 15 -14 20 -13 44 6 15 12 32 21 39
21 12 0 25 21 25 40 0 5 -14 4 -30 -2 -32 -11 -60 -5 -60 12 0 5 7 10 16 10
10 0 14 6 11 15 -4 8 8 29 26 48 36 39 87 118 87 137 0 9 5 8 18 -3 10 -10
144 -93 298 -185z m-895 53 c19 -61 20 -73 8 -94 -20 -35 -45 -48 -66 -35 -10
6 -28 17 -40 25 -20 12 -25 11 -39 -2 -8 -9 -17 -24 -18 -34 -3 -20 -12 -26
-66 -44 -31 -10 -37 -9 -52 9 -13 16 -14 27 -7 53 5 17 9 43 9 55 0 13 13 41
28 61 16 20 32 44 35 54 4 11 17 17 36 17 16 0 43 6 61 14 25 10 39 11 62 2
24 -9 32 -21 49 -81z m-53 -162 c1 -10 7 -34 14 -54 9 -31 8 -41 -6 -60 -9
-13 -16 -30 -16 -39 -1 -25 -62 -114 -106 -153 l-41 -37 -16 53 c-8 28 -18 95
-20 149 l-5 96 51 19 c35 12 53 24 55 38 8 40 22 47 56 26 17 -11 32 -28 34
-38z m-202 -143 c3 -58 12 -127 20 -153 7 -27 13 -52 12 -55 -1 -4 6 -25 16
-47 10 -22 20 -60 23 -85 2 -25 12 -60 21 -77 16 -32 16 -34 -4 -48 -48 -33
-36 -67 45 -118 38 -25 55 -53 72 -120 6 -26 25 -64 41 -85 26 -32 78 -123 78
-136 0 -3 -20 2 -45 11 -25 8 -45 21 -45 28 0 7 -7 18 -15 25 -8 7 -15 21 -15
32 0 33 -39 97 -69 113 -39 20 -91 84 -91 112 0 12 -10 38 -21 58 -19 32 -20
41 -10 75 10 34 9 45 -9 79 -16 32 -20 59 -20 129 0 51 -5 93 -11 99 -7 7 -9
27 -5 52 3 23 9 59 12 81 4 26 1 54 -10 80 -9 22 -16 53 -16 67 0 27 0 27 20
8 16 -17 21 -39 26 -125z m-2907 -199 c12 -8 9 -16 -17 -46 -26 -28 -32 -45
-32 -80 0 -41 -18 -75 -40 -75 -13 0 -18 23 -9 40 5 11 -2 31 -22 59 -35 53
-37 71 -5 71 13 0 34 9 47 20 26 21 56 25 78 11z m414 -227 l267 -6 2 -27 c3
-69 7 -90 21 -136 8 -27 28 -75 45 -105 16 -30 33 -70 37 -87 l7 -33 91 1 c51
1 103 4 117 8 14 4 43 3 64 -3 30 -7 41 -6 44 3 2 7 19 32 38 57 26 34 34 54
34 86 l0 41 69 -6 c49 -4 71 -2 74 6 2 7 16 -2 31 -20 l28 -33 98 0 99 0 5
-42 c3 -24 5 -74 5 -113 0 -38 4 -123 8 -187 8 -109 10 -119 37 -146 18 -19
27 -38 25 -53 -2 -13 2 -38 10 -56 11 -27 11 -35 -3 -55 -9 -12 -16 -31 -16
-41 0 -20 40 -40 54 -26 6 5 43 9 84 9 40 0 82 5 93 11 11 5 29 7 39 4 18 -6
20 -15 18 -78 -2 -46 3 -84 12 -105 12 -26 12 -36 2 -52 -6 -11 -12 -35 -12
-53 l0 -34 -167 -9 -168 -9 0 -319 0 -318 94 -88 93 -88 -73 -22 c-41 -12 -93
-27 -116 -35 -33 -10 -68 -12 -160 -5 -200 15 -257 22 -283 35 -14 7 -39 10
-56 8 -22 -3 -49 4 -92 26 l-61 31 -308 -9 c-359 -11 -418 -5 -493 45 -42 29
-89 31 -132 4 -23 -14 -51 -20 -90 -20 -56 0 -58 1 -72 33 -8 21 -12 59 -10
108 2 40 4 82 4 91 0 9 11 30 26 47 37 45 77 148 80 211 10 172 16 203 49 253
18 27 49 60 69 73 19 13 49 45 66 70 31 44 32 47 33 173 2 129 2 129 -29 172
-17 24 -37 60 -44 79 -7 19 -26 61 -42 92 -15 32 -28 63 -28 71 0 7 16 21 35
30 32 15 35 21 35 59 0 28 -10 59 -31 96 -17 30 -37 86 -45 125 -12 54 -23 80
-49 108 -61 68 -69 85 -55 119 11 25 18 30 49 30 20 0 43 5 51 10 8 6 40 8 70
5 30 -3 175 -8 323 -11z m2775 -501 c43 -14 82 -30 88 -35 7 -5 38 -22 70 -38
81 -42 125 -68 151 -93 13 -11 35 -22 50 -23 53 -6 127 -31 131 -45 2 -8 15
-37 28 -66 19 -41 22 -57 14 -78 -7 -18 -6 -55 2 -116 12 -96 15 -85 -38 -182
-15 -27 -14 -32 16 -89 25 -47 31 -67 26 -93 -5 -23 -1 -45 9 -64 8 -17 15
-41 15 -54 0 -13 8 -30 18 -38 16 -14 87 -49 97 -49 12 0 3 68 -11 88 -9 13
-14 26 -11 29 3 3 19 -17 36 -43 16 -27 39 -54 50 -61 29 -18 45 -76 32 -115
-6 -17 -11 -57 -11 -89 0 -74 -13 -101 -60 -128 -21 -12 -40 -28 -44 -36 -3
-8 -13 -15 -23 -15 -21 0 -113 94 -113 115 0 9 9 33 20 55 36 70 20 186 -26
204 -10 4 -22 2 -28 -4 -19 -19 -49 -10 -85 25 -20 20 -58 55 -84 78 l-48 42
27 49 c15 27 30 66 34 85 4 30 11 38 40 47 34 12 35 13 31 60 -1 26 -7 59 -12
72 -23 59 -2 152 45 199 24 24 27 33 22 68 -14 87 -26 114 -57 131 -17 8 -33
13 -36 10 -3 -2 9 -12 26 -20 30 -16 39 -36 55 -124 5 -27 1 -38 -22 -60 -51
-51 -71 -130 -49 -199 9 -26 17 -64 19 -83 3 -33 1 -35 -29 -38 -27 -3 -34 -9
-38 -30 -13 -60 -30 -105 -52 -134 l-23 -32 37 -38 c20 -21 35 -38 33 -38 -3
-1 -115 -38 -250 -83 -176 -59 -245 -87 -244 -97 1 -8 4 -34 8 -57 l7 -41
-100 -4 c-118 -4 -154 -21 -159 -79 -5 -45 -14 -54 -74 -74 -135 -44 -229
-120 -251 -203 -13 -48 -39 -62 -85 -43 -15 6 -79 15 -142 20 -92 8 -119 7
-142 -5 -15 -8 -40 -14 -56 -14 -15 0 -33 -5 -39 -11 -12 -12 -91 -14 -124 -4
-14 5 -19 16 -19 45 0 30 -4 40 -20 45 -12 4 -35 21 -53 38 -18 18 -43 41 -57
52 -14 11 -42 39 -62 63 l-38 42 0 153 c0 85 3 222 7 305 l6 152 51 0 c28 0
102 3 164 7 l112 6 0 36 c0 20 6 46 14 57 12 17 12 26 -3 70 -13 34 -17 67
-13 107 4 54 6 57 31 57 17 0 38 -11 56 -30 26 -28 34 -30 96 -30 56 0 72 -4
96 -23 58 -48 138 -85 191 -88 48 -4 53 -2 81 31 l31 35 46 -53 c26 -29 64
-60 85 -68 27 -11 53 -37 94 -93 66 -89 111 -124 152 -119 26 3 29 9 44 68 9
36 28 86 42 111 33 57 34 76 2 91 -21 9 -30 7 -65 -16 -22 -14 -44 -26 -50
-26 -5 0 -34 12 -64 27 -39 19 -59 36 -67 57 -18 42 -14 103 7 127 20 22 22
58 15 245 -3 86 -1 93 28 146 18 31 40 60 49 64 9 4 71 11 137 14 66 4 122 7
123 8 2 1 38 -10 80 -25z m540 -209 c12 -8 33 -37 47 -63 20 -41 24 -61 22
-134 -2 -74 1 -90 20 -115 26 -35 22 -91 -9 -131 -22 -29 -23 -68 -2 -110 11
-21 13 -41 8 -64 -14 -60 -10 -91 18 -134 16 -23 28 -53 28 -68 0 -25 -1 -25
-22 -11 -12 9 -30 16 -40 16 -19 0 -42 34 -35 53 2 7 -4 27 -14 45 -11 22 -16
46 -12 66 4 24 -3 50 -26 96 l-31 63 31 48 c35 55 39 90 21 186 -9 42 -9 69
-2 88 8 21 6 36 -11 73 -47 104 -44 134 9 96z m1062 -279 c-8 -35 -9 -62 -3
-85 6 -19 6 -44 2 -55 -4 -11 -8 -55 -8 -97 -1 -42 -6 -80 -11 -83 -6 -4 -8
-21 -4 -41 3 -19 1 -63 -6 -99 -12 -64 -12 -67 14 -105 31 -47 31 -48 7 -74
-10 -12 -26 -54 -36 -94 l-17 -73 -126 -127 c-123 -123 -127 -126 -179 -133
-74 -10 -255 -101 -293 -148 -16 -20 -45 -52 -63 -71 -19 -19 -44 -52 -56 -72
-13 -22 -30 -38 -41 -38 -10 0 -39 -17 -63 -37 -25 -21 -67 -50 -95 -65 -91
-49 -138 -144 -94 -191 42 -45 62 -120 62 -235 0 -67 4 -102 9 -93 6 10 11 -4
16 -43 6 -43 4 -65 -8 -89 -8 -18 -20 -62 -25 -99 -16 -108 -35 -137 -117
-177 -38 -18 -90 -36 -115 -39 -25 -3 -62 -17 -85 -32 -22 -15 -64 -39 -93
-54 -29 -15 -62 -36 -72 -46 -24 -24 -26 -73 -5 -123 22 -53 11 -71 -39 -63
-23 4 -46 13 -51 20 -8 10 -4 66 12 193 23 184 21 224 -12 277 -7 12 -16 37
-20 56 -4 19 -15 51 -25 70 -11 21 -19 64 -21 106 l-4 71 98 128 c53 70 97
134 97 141 0 8 3 14 8 14 4 0 22 13 40 28 40 33 56 89 41 147 -6 22 -14 56
-18 75 -4 19 -13 46 -20 59 -12 21 -11 26 6 40 50 40 61 79 65 218 l3 132 -34
26 c-19 14 -48 25 -63 25 -36 0 -101 33 -153 77 -36 31 -45 34 -95 32 l-55 -3
-1 35 c-1 19 -5 57 -9 84 l-7 51 246 82 c135 45 252 82 259 82 8 0 31 -18 50
-39 40 -44 66 -53 91 -32 15 13 20 12 38 -6 31 -32 36 -108 9 -168 -11 -26
-21 -57 -21 -69 0 -34 90 -126 123 -126 15 0 27 4 27 10 0 5 20 23 45 40 25
17 50 40 56 52 6 11 15 67 20 124 10 116 4 143 -43 189 -16 17 -48 55 -70 85
-37 52 -39 58 -33 107 5 37 2 60 -9 82 -21 40 -20 63 4 94 11 14 20 35 20 47
0 41 18 60 58 60 21 0 42 -4 48 -10 6 -6 22 -6 46 2 30 9 41 8 54 -3 11 -9 42
-14 88 -15 39 0 89 -3 112 -8 38 -7 43 -5 83 34 33 32 48 40 64 35 78 -23 149
-11 217 35 14 10 41 20 61 24 21 4 57 22 80 40 l44 34 3 -27 c2 -14 -2 -49 -8
-76z m-955 -436 c11 -17 -1 -21 -15 -4 -8 9 -8 15 -2 15 6 0 14 -5 17 -11z
m-805 -397 l0 -35 61 6 c56 5 63 3 92 -23 49 -43 122 -80 159 -80 19 -1 45
-10 62 -24 l28 -24 -1 -122 c-2 -130 -8 -151 -57 -210 -27 -31 -27 -33 -11
-64 18 -35 26 -76 34 -159 5 -57 5 -57 -42 -105 -25 -26 -91 -108 -146 -182
-67 -89 -106 -134 -117 -133 -37 5 -121 21 -190 37 -40 9 -89 16 -108 16 -27
0 -37 5 -46 25 -14 31 -43 50 -96 64 -51 14 -104 85 -104 140 0 29 -8 44 -41
75 -22 21 -55 45 -73 52 -29 12 -124 111 -124 129 0 5 -11 22 -24 39 -34 45
-56 92 -56 118 0 15 -16 39 -40 63 -22 21 -40 42 -40 46 0 10 143 3 199 -11
75 -18 94 -10 109 45 19 72 97 144 192 179 113 41 124 49 136 97 16 65 47 80
157 77 l87 -2 0 -34z m-2850 -236 l55 -31 362 3 c356 3 362 3 405 -19 23 -12
68 -25 98 -29 30 -4 96 -15 145 -24 50 -8 126 -16 170 -17 44 0 91 -4 105 -8
17 -5 65 5 150 32 142 44 155 47 154 30 -4 -52 0 -50 -86 -56 -46 -3 -110 -15
-142 -26 -36 -13 -84 -21 -123 -21 l-63 0 0 -325 0 -325 -54 0 c-29 0 -68 -3
-85 -6 l-31 -6 0 -569 0 -569 -24 0 c-16 0 -32 -11 -46 -30 -36 -51 -157 -66
-257 -31 -61 21 -83 37 -83 61 0 32 -12 50 -41 65 -27 15 -29 14 -43 -12 -8
-16 -26 -39 -41 -53 l-27 -25 -19 24 c-11 13 -23 30 -27 36 -4 7 -20 16 -37
22 -39 12 -113 142 -125 219 -5 29 -18 71 -30 94 -15 30 -23 68 -27 143 -5 82
-12 114 -35 164 -35 78 -59 247 -40 288 19 42 15 58 -44 146 -31 46 -66 113
-76 147 -14 44 -31 73 -54 94 -19 17 -34 36 -34 41 0 16 -91 197 -138 275 -24
40 -57 83 -73 94 -16 12 -29 27 -29 33 0 7 -9 20 -21 31 -18 16 -20 27 -17 72
6 63 15 72 83 72 28 0 67 9 90 20 49 24 79 19 155 -24z m1960 -117 c0 -6 18
-29 40 -51 26 -28 40 -51 40 -69 0 -56 150 -260 214 -290 63 -29 98 -70 100
-116 3 -39 43 -110 74 -128 9 -5 37 -16 61 -25 31 -10 50 -25 62 -46 17 -31
17 -33 -4 -52 -12 -11 -38 -23 -58 -27 -21 -4 -59 -26 -90 -51 -30 -24 -70
-55 -90 -68 -46 -31 -129 -123 -130 -145 0 -9 -12 -38 -27 -65 -21 -38 -39
-56 -77 -75 -43 -23 -54 -35 -82 -92 l-32 -66 -70 -7 c-74 -6 -151 9 -151 30
0 6 -11 21 -25 34 -22 20 -30 22 -82 16 -86 -10 -108 -30 -127 -118 -4 -18
-21 -37 -47 -53 -22 -14 -45 -37 -51 -50 -16 -35 -54 -46 -144 -43 l-79 3 3
38 c2 21 10 53 17 70 12 30 10 38 -26 114 -25 53 -51 92 -74 110 l-35 28 0
236 0 236 46 7 c26 3 64 6 85 6 l39 0 2 323 3 322 50 3 c28 1 97 14 154 28
107 27 138 28 260 5 42 -8 61 -7 89 5 19 8 42 12 51 10 9 -3 32 3 51 13 34 18
60 18 60 0z m745 -775 c39 -8 95 -19 125 -24 30 -5 67 -15 83 -21 25 -11 27
-16 27 -68 0 -36 7 -70 19 -94 10 -20 22 -54 26 -74 4 -21 14 -46 23 -56 8 -9
17 -41 20 -70 5 -62 -14 -227 -27 -240 -6 -6 -20 -2 -37 12 -37 29 -55 27 -96
-16 -88 -92 -93 -166 -19 -237 23 -22 36 -27 67 -24 34 3 39 6 45 36 9 42 13
46 52 44 94 -3 107 -4 107 -8 0 -3 -7 -21 -16 -42 -9 -20 -20 -68 -25 -106
-11 -87 -42 -140 -116 -203 -149 -126 -233 -223 -292 -337 -20 -39 -42 -62
-93 -96 -36 -25 -78 -60 -93 -77 -15 -18 -63 -58 -108 -89 -45 -31 -97 -74
-115 -95 -20 -23 -43 -39 -55 -39 -12 0 -38 -10 -57 -22 -51 -32 -99 -48 -150
-48 -28 0 -56 -8 -75 -20 -16 -11 -46 -20 -65 -20 -19 0 -43 -6 -52 -14 -13
-9 -34 -10 -85 -4 -85 11 -115 12 -231 7 -89 -3 -95 -5 -114 -31 -17 -25 -26
-28 -66 -27 -92 4 -165 -12 -194 -43 -37 -40 -94 -39 -141 2 -19 16 -42 30
-51 30 -9 0 -25 14 -34 31 -9 18 -27 41 -39 52 -13 11 -23 28 -23 38 0 9 -7
19 -15 22 -19 8 -55 80 -55 110 0 32 9 38 33 25 17 -9 19 -8 12 8 -4 11 -10
60 -14 111 -7 78 -11 95 -34 123 -15 17 -27 37 -27 44 0 7 -9 21 -20 31 -11
10 -20 23 -20 28 0 6 -15 33 -34 61 -19 28 -49 94 -67 146 -18 52 -38 102 -45
110 -7 8 -17 27 -23 42 -9 24 -7 31 18 55 15 15 32 37 38 47 10 19 12 19 37 3
15 -10 26 -27 26 -40 0 -37 27 -65 70 -72 22 -4 42 -11 46 -16 6 -10 110 -12
167 -2 23 3 50 18 68 35 16 17 41 33 56 37 l28 7 -4 317 c-2 186 1 317 6 317
20 0 55 -44 89 -116 33 -67 36 -79 26 -107 -5 -18 -13 -51 -17 -74 -6 -40 -5
-44 20 -53 34 -13 110 -13 156 0 24 7 50 26 74 55 20 25 43 45 50 45 19 0 41
37 49 81 9 52 40 75 110 83 65 7 86 -2 86 -40 0 -20 5 -24 29 -24 17 0 33 -4
36 -10 7 -11 126 -14 162 -4 15 4 32 27 52 69 30 64 70 105 101 105 9 0 24 8
32 18 18 21 58 104 58 120 0 17 75 98 126 136 22 17 64 50 92 72 29 24 67 44
89 49 21 3 47 15 58 25 18 16 41 26 70 29 6 0 42 -6 80 -15z m267 -652 c36
-16 37 -18 30 -57 -4 -22 -7 -54 -6 -72 0 -23 -5 -34 -22 -42 -16 -7 -24 -20
-26 -43 -3 -29 -7 -33 -33 -36 -34 -3 -40 1 -78 46 -44 54 -33 111 37 194 32
38 36 38 98 10z"/>
<path d="M7535 1029 c-85 -18 -120 -35 -137 -69 -9 -19 -30 -39 -47 -46 -42
-18 -47 -46 -17 -91 14 -21 26 -43 26 -50 0 -20 31 -29 100 -31 36 -1 79 -6
95 -10 18 -5 39 -5 53 1 19 9 22 18 22 63 0 46 4 57 32 84 31 32 31 32 14 63
-26 48 -59 84 -81 90 -11 2 -38 1 -60 -4z m113 -62 l35 -48 -29 -30 c-23 -24
-30 -42 -34 -87 l-5 -57 -45 2 c-25 1 -76 3 -114 5 l-70 3 -31 54 c-37 63 -36
83 9 99 23 8 36 22 45 47 8 23 19 35 30 35 11 0 34 7 52 15 19 8 54 14 78 12
41 -2 48 -6 79 -50z"/>
<path d="M11203 3896 c-14 -31 -22 -36 -50 -36 -29 0 -32 -2 -24 -17 25 -49 4
-153 -31 -153 -11 0 -28 -15 -39 -34 l-20 -35 -32 20 -32 19 -5 -33 c-3 -17
-1 -43 4 -56 9 -20 6 -27 -16 -45 -14 -11 -35 -43 -47 -70 -20 -47 -22 -48
-36 -30 -15 18 -16 18 -45 -16 -33 -38 -35 -46 -20 -86 8 -21 8 -29 -2 -36
-22 -14 -28 -9 -28 22 0 17 -2 30 -5 30 -3 0 -23 -12 -45 -26 -39 -26 -57 -55
-45 -74 9 -14 -5 -12 -35 5 -36 20 -66 18 -89 -6 -15 -16 -26 -19 -50 -14 -23
5 -37 1 -61 -17 -17 -13 -42 -22 -54 -20 -29 4 -51 -22 -48 -58 2 -21 -12 -48
-52 -101 l-55 -73 4 -94 c3 -64 9 -102 20 -119 9 -13 23 -55 31 -93 12 -58 12
-74 0 -107 -19 -55 -65 -144 -86 -168 -9 -11 -20 -32 -24 -47 -4 -17 -23 -36
-56 -57 -39 -24 -50 -36 -50 -57 0 -14 -10 -40 -22 -57 -31 -43 -31 -145 -1
-202 36 -71 40 -96 21 -135 -24 -45 -23 -106 2 -153 11 -20 20 -43 20 -50 0
-47 137 -147 201 -147 18 0 46 9 64 20 18 11 52 24 76 30 24 5 58 12 74 16 40
9 102 69 116 113 6 20 31 73 55 118 24 44 44 88 44 97 0 9 15 46 34 83 19 38
40 88 46 113 7 25 21 59 31 77 22 35 99 220 99 237 0 6 21 45 45 86 25 41 45
83 45 94 0 20 11 46 78 185 30 61 36 85 36 143 1 63 4 73 32 107 37 43 74 109
74 131 0 8 -6 27 -14 42 -8 15 -13 35 -11 45 13 63 17 73 29 73 8 0 20 -16 26
-35 6 -19 15 -37 20 -40 4 -3 23 18 40 47 31 49 32 56 26 117 -4 40 -14 73
-24 84 -14 15 -17 40 -18 126 -1 154 -20 230 -79 316 l-24 37 -18 -36z m45
-29 c41 -46 66 -162 67 -300 0 -91 3 -110 17 -118 11 -6 19 -29 23 -74 7 -58
5 -69 -19 -110 -27 -45 -46 -51 -46 -15 0 23 -40 54 -53 41 -20 -20 -27 -99
-11 -136 14 -34 14 -40 -7 -81 -11 -25 -36 -62 -54 -84 -30 -36 -33 -45 -33
-107 1 -62 -4 -78 -56 -185 -31 -64 -56 -128 -56 -141 0 -13 -20 -55 -45 -93
-24 -38 -45 -76 -45 -84 0 -20 -62 -168 -100 -241 -17 -31 -30 -65 -30 -76 0
-10 -18 -54 -40 -98 -22 -44 -40 -88 -40 -99 0 -11 -17 -49 -39 -85 -21 -36
-46 -88 -55 -115 -19 -55 -77 -115 -113 -116 -12 0 -25 -4 -28 -10 -3 -5 -21
-10 -38 -10 -18 0 -53 -11 -79 -25 -62 -33 -79 -32 -152 9 -62 35 -106 81
-106 112 0 10 -7 25 -15 34 -27 29 -30 110 -8 155 18 34 19 43 8 79 -7 23 -20
55 -29 71 -24 45 -22 155 4 188 11 14 20 34 20 45 0 28 10 52 22 52 22 0 71
45 85 79 8 20 23 45 32 56 9 11 34 57 55 103 l39 83 -17 81 c-9 45 -23 89 -31
98 -19 21 -28 184 -12 215 5 11 27 41 48 66 21 25 40 56 43 70 17 83 16 81 40
75 15 -4 34 3 56 19 27 20 41 24 68 19 27 -5 36 -2 48 15 17 24 38 26 74 8 29
-15 70 -27 70 -21 0 2 -6 13 -12 25 -12 18 -9 24 20 50 41 37 48 36 56 -2 6
-30 7 -31 28 -16 23 15 27 35 14 74 -10 30 35 83 56 65 19 -16 45 11 59 62 5
20 16 36 24 36 23 0 33 32 28 83 -6 50 0 56 31 32 27 -20 29 -20 50 20 11 20
27 35 37 35 25 0 63 74 56 109 -3 14 -9 34 -12 43 -5 13 0 17 22 20 19 2 32
12 42 33 10 21 16 25 19 15 3 -8 12 -23 20 -33z"/>
</g>
</svg>
